{"title":"Geordie Shore S09E06 WEB-DL","uid":11624274,"size":524294434,"categoryP":"video","categoryS":"tv_shows","magnet":"?xt=urn:btih:33752dd9cbb1bbfb55976d9574c5334a87ee419e&amp;dn=+Geordie+Shore+S09E06+WEB-DL&amp;tr=udp%3A%2F%2Ftracker.openbittorrent.com%3A80&amp;tr=udp%3A%2F%2Fopen.demonii.com%3A1337&amp;tr=udp%3A%2F%2Ftracker.coppersurfer.tk%3A6969&amp;tr=udp%3A%2F%2Fexodus.desync.com%3A6969","seeders":4,"leechers":0,"uploader":"jmanwf","files":-1,"time":1417599022,"description":"he Geordies are heading out of the Toon and into the country to host a Tash on Tours night at / Get ready for more mortal madness! The gang are back in the 'toon and this time there's a twist. She's long been revered as Queen of the one-liners but for this season of Geordie Shore, Vicky will officially be crowned Queen out the house! Her house. Her rules. God save the Geordies!\n\n\n\nFormat : MPEG-4\nFormat profile : Base Media / Version 2\nCodec ID : mp42\nFile size : 500 MiB\nDuration : 41mn 54s\nOverall bit rate mode : Variable\nOverall bit rate : 1 668 Kbps\nCollection : Geordie Shore\nSeason : 9\nAlbum : Geordie Shore, Season 9\nAlbum/Sorted by : Geordie Shore, Season 9\nAlbum/Performer : Geordie Shore\nPart : 6\nPart/Position : 1\nPart/Total : 1\nTrack name : 906\nTrack name/Position : 6\nTrack name/Total : 14\nPerformer : Geordie Shore\nPerformer/Sorted by : Geordie Shore\nGenre : Reality TV\nContentType : TV Show\nDescription : The Geordies are heading out of the Toon and\nRecorded date : UTC 2014-12-02 08:00:00\nEncoded date : UTC 2014-12-03 04:31:25\nTagged date : UTC 2014-12-03 04:33:35\nCopyright : Â© Viacom 2014\nCover : Yes\nRating : None\nAppleStoreAccount :\nownr :\nAppleStoreCatalogID : 943594130\nAlbumTitleID : 436752265\nPlayListID : 927980752\nGenreID : 4007\nAppleStoreCountry : United Kingdom\nPart_ID : 0106\nPurchaseDate : 2014-12-03 02:51:04\nTitle/Sort : 906\nVendor :\nFlavour : 4:640x480LC-128\nContentRating : uk-tv|Caution|500|\n\n\nVideo\nID : 2\nFormat : AVC\nFormat/Info : Advanced Video Codec\nFormat profile : &lt;a class=&quot;__cf_email__&quot; href=&quot;/cdn-cgi/l/email-protection&quot; data-cfemail=&quot;5e1c3f2d3b3237303b1e126d706e&quot;&gt;[email&amp;#160;protected]&lt;/a&gt;&lt;script cf-hash='f9e31' type=&quot;text/javascript&quot;&gt;\n/* &lt;![CDATA[ */!function(){try{var t=&quot;currentScript&quot;in document?document.currentScript:function(){for(var t=document.getElementsByTagName(&quot;script&quot;),e=t.length;e--;)if(t[e].getAttribute(&quot;cf-hash&quot;))return t[e]}();if(t&amp;&amp;t.previousSibling){var e,r,n,i,c=t.previousSibling,a=c.getAttribute(&quot;data-cfemail&quot;);if(a){for(e=&quot;&quot;,r=parseInt(a.substr(0,2),16),n=2;a.length-n;n+=2)i=parseInt(a.substr(n,2),16)^r,e+=String.fromCharCode(i);e=document.createTextNode(e),c.parentNode.replaceChild(e,c)}}}catch(u){}}();/* ]]&gt; */&lt;/script&gt;\nFormat settings, CABAC : No\nFormat settings, ReFrames : 1 frame\nCodec ID : avc1\nCodec ID/Info : Advanced Video Coding\nDuration : 41mn 54s\nBit rate : 1 539 Kbps\nWidth : 640 pixels\nHeight : 480 pixels\nDisplay aspect ratio : 16:9\nFrame rate mode : Constant\nFrame rate : 25.000 fps\nColor space : YUV\nChroma subsampling : 4:2:0\nBit depth : 8 bits\nScan type : Progressive\nBits/(Pixel*Frame) : 0.200\nStream size : 461 MiB (92%)\nLanguage : English\nEncoded date : UTC 2014-12-03 04:31:25\nTagged date : UTC 2014-12-03 04:33:35\nColor primaries : BT.601 NTSC\nTransfer characteristics : BT.709\nMatrix coefficients : BT.601\n\nAudio\nID : 1\nFormat : AAC\nFormat/Info : Advanced Audio Codec\nFormat profile : LC\nCodec ID : 40\nDuration : 41mn 54s\nBit rate mode : Variable\nBit rate : 126 Kbps\nMaximum bit rate : 199 Kbps\nChannel(s) : 2 channels\nChannel positions : Front: L R\nSampling rate : 44.1 KHz\nCompression mode : Lossy\nStream size : 37.7 MiB (8%)\nLanguage : English\nEncoded date : UTC 2014-12-03 04:31:25\nTagged date : UTC 2014-12-03 04:33:35","torrent":{"xt":"urn:btih:33752dd9cbb1bbfb55976d9574c5334a87ee419e","amp;dn":"+Geordie+Shore+S09E06+WEB-DL","amp;tr":["udp%3A%2F%2Ftracker.openbittorrent.com%3A80","udp%3A%2F%2Fopen.demonii.com%3A1337","udp%3A%2F%2Ftracker.coppersurfer.tk%3A6969","udp%3A%2F%2Fexodus.desync.com%3A6969"],"infoHash":"33752dd9cbb1bbfb55976d9574c5334a87ee419e","infoHashBuffer":{"type":"Buffer","data":[51,117,45,217,203,177,187,251,85,151,109,149,116,197,51,74,135,238,65,158]},"announce":[],"urlList":[]}}